<svg version="1.0" xmlns="http://www.w3.org/2000/svg"
 width="809.000000pt" height="844.000000pt" viewBox="0 0 809.000000 760"
 preserveAspectRatio="xMidYMid meet">
<g transform="translate(0.000000,844.000000) scale(0.100000,-0.100000)"
fill="#78879a" stroke="none">
<path d="M3552 8424 c-733 -80 -1398 -353 -1974 -812 -167 -133 -443 -408
-574 -572 -440 -551 -711 -1187 -805 -1885 -26 -196 -36 -569 -20 -770 41
-523 189 -1038 418 -1455 125 -228 271 -452 409 -625 113 -142 439 -467 575
-574 407 -319 818 -534 1289 -676 182 -54 543 -128 720 -146 155 -16 566 -17
720 -1 451 47 873 165 1268 353 167 79 279 143 462 265 891 591 1489 1540
1644 2604 57 395 44 898 -34 1275 -127 618 -399 1197 -771 1642 -38 45 -69 84
-69 87 0 3 16 27 36 53 98 129 154 320 140 483 -16 188 -91 346 -227 476 -79
75 -160 124 -264 161 -74 26 -91 28 -230 28 -161 0 -222 -13 -335 -70 -67 -34
-188 -133 -230 -187 l-34 -45 -111 52 c-383 181 -790 293 -1230 340 -174 18
-601 18 -773 -1z m793 -40 c333 -36 668 -120 990 -247 123 -49 305 -135 305
-145 0 -4 -7 -17 -15 -28 -25 -37 -63 -149 -76 -228 -51 -320 116 -640 406
-772 98 -45 189 -64 310 -64 190 0 350 59 477 176 l34 31 98 -123 c181 -227
303 -423 437 -699 179 -369 290 -741 346 -1160 25 -190 25 -716 0 -905 -74
-546 -239 -1025 -507 -1470 -578 -961 -1569 -1622 -2665 -1779 -296 -43 -657
-51 -915 -21 -47 5 -116 12 -155 15 -97 9 -295 49 -447 91 -515 141 -963 372
-1388 712 -136 110 -439 416 -556 562 -162 204 -331 465 -408 632 -213 459
-309 763 -373 1183 -25 168 -27 203 -27 510 -1 362 8 466 65 747 141 696 475
1337 963 1846 672 699 1556 1102 2536 1156 115 6 421 -5 565 -20z"/>
<path d="M3840 6846 c-41 -30 -89 -66 -106 -80 -18 -14 -35 -26 -39 -26 -4 0
-20 -10 -35 -22 -15 -13 -36 -29 -46 -35 -10 -7 -90 -63 -176 -125 l-158 -112
0 -51 c0 -27 -7 -169 -15 -315 -8 -145 -12 -266 -10 -268 2 -2 148 99 325 224
282 199 324 225 343 217 12 -6 163 -99 334 -207 172 -108 315 -196 318 -196 3
0 5 142 5 315 0 245 3 315 13 315 6 1 -4 10 -23 21 -19 11 -47 27 -62 37 -323
204 -578 362 -584 362 -5 0 -43 -25 -84 -54z"/>
<path d="M4600 6152 l0 -320 268 -168 c147 -92 291 -183 319 -201 l52 -33 3
324 3 324 -305 191 c-168 104 -313 193 -322 197 -17 6 -18 -13 -18 -314z"/>
<path d="M3160 6360 c-47 -33 -92 -66 -100 -73 -8 -7 -40 -29 -71 -49 -30 -20
-61 -44 -68 -52 -8 -9 -18 -16 -23 -16 -6 0 -23 -10 -38 -22 -15 -13 -36 -29
-46 -36 -97 -64 -163 -115 -159 -123 4 -5 -1 -137 -10 -293 -9 -157 -15 -294
-13 -306 3 -19 41 6 298 187 l295 208 12 240 c6 132 13 275 15 318 3 42 2 77
-1 77 -3 0 -44 -27 -91 -60z"/>
<path d="M3585 6009 c-170 -121 -316 -224 -323 -228 -9 -5 -17 -103 -31 -367
-10 -197 -18 -360 -17 -360 0 -1 146 97 324 218 l323 220 355 -201 c195 -111
357 -201 359 -201 3 0 5 163 5 363 l0 363 -330 207 c-182 114 -336 207 -343
206 -6 0 -151 -99 -322 -220z"/>
<path d="M5270 5736 l0 -324 296 -186 c162 -102 298 -186 301 -186 5 0 -2 312
-13 538 l-6 122 -124 78 c-68 42 -143 89 -166 104 -24 15 -52 32 -63 38 -11 5
-58 35 -105 65 -47 31 -93 60 -102 66 -17 9 -18 -9 -18 -315z"/>
<path d="M2533 5913 c-51 -37 -132 -95 -179 -128 -48 -33 -92 -64 -98 -70 -7
-5 -19 -14 -27 -20 -62 -39 -96 -65 -108 -79 -7 -9 -20 -16 -27 -16 -8 0 -14
-8 -14 -17 0 -10 -7 -152 -16 -316 -8 -165 -14 -301 -11 -303 3 -3 526 362
543 378 6 6 36 561 32 602 l-3 37 -92 -68z"/>
<path d="M4600 5438 l0 -365 298 -168 c163 -93 307 -175 320 -183 l22 -14 0
348 -1 349 -280 175 c-155 96 -299 186 -320 199 l-39 23 0 -364z"/>
<path d="M2919 5539 l-295 -209 -19 -338 c-10 -186 -16 -343 -14 -349 2 -6
132 77 289 183 157 107 290 198 296 202 10 6 52 708 43 716 -2 2 -137 -90
-300 -205z"/>
<path d="M3533 5239 c-310 -211 -323 -221 -323 -252 -1 -18 -9 -187 -19 -377
-10 -190 -18 -345 -17 -346 8 -5 733 -406 737 -407 3 -1 155 90 337 203 l332
205 0 396 0 397 -355 201 c-196 110 -359 201 -363 201 -4 -1 -152 -100 -329
-221z"/>
<path d="M5270 5037 l0 -343 300 -170 c165 -93 300 -175 300 -181 0 -7 -2 -13
-4 -13 -1 0 -130 72 -286 161 -156 88 -289 163 -297 166 -11 4 -13 -64 -13
-395 l0 -399 -315 -198 c-173 -108 -317 -200 -319 -204 -2 -3 132 -82 298
-174 166 -92 307 -172 312 -177 5 -5 72 27 169 81 88 50 237 133 330 185 l170
94 -22 748 c-12 411 -22 759 -22 775 -1 15 -6 27 -11 27 -6 0 -135 78 -288
173 -152 96 -283 177 -289 181 -10 6 -13 -64 -13 -337z"/>
<path d="M2326 5120 c-148 -104 -271 -192 -274 -195 -5 -4 -42 -677 -37 -682
2 -4 517 345 532 360 7 8 18 131 31 357 11 190 19 346 18 347 -1 1 -123 -83
-270 -187z"/>
<path d="M4600 4647 l0 -394 -329 -204 c-182 -112 -327 -207 -323 -211 6 -6
561 -316 628 -351 l30 -15 314 197 315 197 2 410 3 409 -311 175 c-170 96
-314 177 -319 178 -6 2 -10 -142 -10 -391z"/>
<path d="M2890 4802 c-157 -106 -290 -197 -296 -200 -13 -8 -58 -772 -46 -783
23 -21 706 -370 716 -366 14 6 596 365 614 380 9 7 -86 64 -355 214 -202 112
-369 205 -371 208 -3 2 3 161 13 352 9 191 16 357 14 368 -4 18 -44 -6 -289
-173z"/>
<path d="M2295 4399 c-143 -98 -266 -178 -272 -179 -9 0 -13 -17 -14 -47 0
-27 -8 -194 -17 -372 l-17 -324 369 -184 368 -184 207 127 c113 70 230 143
260 162 l53 34 -38 22 c-22 12 -184 97 -360 190 l-322 167 5 62 c6 81 40 702
39 703 -1 0 -118 -80 -261 -177z"/>
<path d="M3600 3633 c-173 -107 -316 -196 -317 -197 -5 -4 673 -356 686 -356
20 0 611 374 603 381 -6 6 -559 315 -637 357 -18 9 -63 -16 -335 -185z"/>
<path d="M4300 3255 c-162 -102 -296 -189 -297 -193 -2 -4 130 -76 292 -160
162 -85 295 -158 295 -163 0 -5 10 -3 23 5 12 8 152 87 312 175 159 89 293
165 298 170 8 8 -596 351 -618 351 -6 0 -143 -83 -305 -185z"/>
<path d="M3020 3274 c-129 -80 -246 -152 -259 -161 -23 -15 -15 -20 327 -194
l350 -180 249 156 c136 86 249 159 250 163 2 5 -667 362 -679 362 -2 0 -109
-66 -238 -146z"/>
<path d="M3722 2892 c-139 -86 -252 -159 -252 -162 0 -12 588 -298 596 -290 5
4 83 49 174 98 91 50 205 113 253 140 l89 49 -274 143 c-150 79 -287 151 -304
161 l-31 19 -251 -158z"/>
</g>
</svg>
