<svg xmlns="http://www.w3.org/2000/svg" viewBox="0 0 1922.002 448.145">
  <defs>
    <style>
      .cls-1, .cls-2, .cls-3 {
        fill: #d0d5dc;
      }

      .cls-1 {
        opacity: 0.401;
      }

      .cls-2 {
        opacity: 0.217;
      }
    </style>
  </defs>
  <g id="Group_23" data-name="Group 23" transform="translate(0.158 -3034.104)">
    <path id="Path_299" data-name="Path 299" class="cls-2" d="M-19.158,3260.237s254.784-.3,603.256,0,980.587-117.878,980.587-117.878,214.683-36.256,338.115-21.887c.167.053-.222,403.157,0,402.33l-949.731-12.971-972.227,13.417Z" transform="translate(19 -83)"/>
    <path id="Path_290" data-name="Path 290" class="cls-1" d="M-19.158,3260.237s254.784-99.3,603.256,0,980.587-117.878,980.587-117.878,61.455-36.249,184.887-21.879c.167.053-.222,403.157,0,402.33l-796.5-12.978-972.227,13.417Z" transform="translate(171 -41)"/>
    <path id="Path_289" data-name="Path 289" class="cls-3" d="M 44.287 3243.82 c 96.5 -22.961 295.183 -53.288 539.811 16.417 c 348.472 99.3 902.902 -88.237 980.587 -117.878 s 209.315 -54.359 358.315 22.641 a 253.947 253.947 0 0 1 43.147 22.693 c 0.267 1.019 -0.135 314.673 0 313.447 c -0.384 -0.362 -1920.445 0.607 -1920.445 0.607 S 44.449 3243.792 44.287 3243.82 Z" transform="translate(-44 -18)"/>
  </g>
</svg>
